<?xml version="1.0" standalone="no"?><!DOCTYPE svg PUBLIC "-//W3C//DTD SVG 1.1//EN" "http://www.w3.org/Graphics/SVG/1.1/DTD/svg11.dtd"><svg t="1542814810718" class="icon" style="" viewBox="0 0 1024 1024" version="1.1" xmlns="http://www.w3.org/2000/svg" p-id="7705" xmlns:xlink="http://www.w3.org/1999/xlink" width="32" height="32"><defs><style type="text/css"></style></defs><path d="M653.9 153.1c-6.9-7-18.1-7-25 0L69.1 726.3c-6.9 7-6.9 18.5 0 25.6L178 863.4c6.9 7 20.4 12.8 30.1 12.8H557c9.7 0 23.3-5.8 30.1-12.8l367.8-376.6c6.9-7 6.9-18.5 0-25.6l-301-308.1zM552.5 795.4c-6.9 7-20.4 12.8-30.1 12.8h-270c-9.7 0-23.3-5.8-30.1-12.8L171 742.8c-6.9-7-6.9-18.5 0-25.6l205-210.1c6.9-7 18.1-7 25 0L605 716c6.9 7 6.9 18.5 0 25.6l-52.5 53.8z m0 0" fill="#757575" p-id="7706"></path></svg>